<svg width="40" height="40" viewBox="0 0 40 40" fill="none" xmlns="http://www.w3.org/2000/svg">
<circle cx="20" cy="20" r="20" fill="#F5F6F7"/>
<circle cx="20" cy="20" r="19.9678" stroke="#3197FF" stroke-opacity="0.2" stroke-width="0.0644528"/>
<path d="M34.7194 22.4031C35.8837 19.7933 30.1279 12.5023 24.6291 9.46466C21.1631 7.11145 17.5515 7.43474 16.8201 8.46797C15.2147 10.7355 22.1355 12.6569 26.764 14.899C25.769 15.3326 24.8314 16.1107 24.2801 17.1058C22.5546 15.2156 18.7673 13.5878 14.3233 14.899C11.3286 15.7826 8.83973 17.8656 7.87779 21.0118C7.64406 20.9076 7.38528 20.8497 7.11302 20.8497C6.07189 20.8497 5.22789 21.6965 5.22789 22.7411C5.22789 23.7858 6.07189 24.6326 7.11302 24.6326C7.306 24.6326 7.90938 24.5027 7.90938 24.5027L17.5515 24.5728C13.6954 30.7107 10.648 31.608 10.648 32.6714C10.648 33.7347 13.5639 33.4466 14.6587 33.0502C19.8997 31.1528 25.5289 25.2391 26.4948 23.5368C30.5513 24.0447 33.9603 24.1047 34.7194 22.4031Z" fill="url(#paint0_linear_6627_115159)"/>
<path fill-rule="evenodd" clip-rule="evenodd" d="M26.7636 14.8993C26.7639 14.8994 26.7642 14.8996 26.7645 14.8997C26.979 14.8149 26.9443 14.4969 26.8854 14.2472C26.75 13.6734 24.4139 11.3588 22.22 10.322C19.2307 8.90927 17.0295 8.9821 16.7042 9.63323C17.3131 10.8854 20.1361 12.0611 23.0844 13.289C24.3422 13.8129 25.6229 14.3462 26.7641 14.8991C26.7641 14.8991 26.7638 14.8993 26.7636 14.8993Z" fill="url(#paint1_linear_6627_115159)"/>
<path fill-rule="evenodd" clip-rule="evenodd" d="M22.9701 27.5025C22.3655 27.2706 21.6826 27.058 20.9062 26.865C21.734 25.3788 21.9078 23.1785 21.1259 21.7874C20.0287 19.835 18.6513 18.7959 15.4509 18.7959C13.6905 18.7959 8.95097 19.3909 8.86688 23.3606C8.85797 23.7772 8.86657 24.1589 8.89663 24.51L17.5514 24.5728C16.3846 26.4302 15.2919 27.8076 14.3351 28.8549C15.4839 29.1502 16.4317 29.3982 17.3019 29.6259C18.1277 29.8418 18.8835 30.0395 19.6746 30.2421C20.8679 29.3697 21.9897 28.4184 22.9701 27.5025Z" fill="url(#paint2_linear_6627_115159)"/>
<path d="M7.7624 24.1023C8.11595 27.118 9.82409 28.2998 13.3144 28.6495C16.8048 28.9993 18.8069 28.7647 21.4724 29.008C23.6986 29.2112 25.6863 30.3495 26.4238 29.9561C27.0874 29.6021 26.7162 28.3231 25.8281 27.5025C24.677 26.4389 23.0839 25.6993 20.2806 25.4369C20.8393 23.9022 20.6828 21.7503 19.8151 20.5795C18.5606 18.8867 16.2451 18.1213 13.3144 18.4558C10.2526 18.8052 7.31868 20.3177 7.7624 24.1023Z" fill="url(#paint3_linear_6627_115159)"/>
<defs>
<linearGradient id="paint0_linear_6627_115159" x1="13.9745" y1="20.0921" x2="34.4789" y2="25.8872" gradientUnits="userSpaceOnUse">
<stop stop-color="#8697FF"/>
<stop offset="1" stop-color="#ABB7FF"/>
</linearGradient>
<linearGradient id="paint1_linear_6627_115159" x1="31.0179" y1="19.7011" x2="16.1805" y2="4.87742" gradientUnits="userSpaceOnUse">
<stop stop-color="#8697FF"/>
<stop offset="1" stop-color="#5156D8" stop-opacity="0"/>
</linearGradient>
<linearGradient id="paint2_linear_6627_115159" x1="23.3814" y1="28.0206" x2="9.15276" y2="19.8676" gradientUnits="userSpaceOnUse">
<stop stop-color="#465EED"/>
<stop offset="1" stop-color="#8697FF" stop-opacity="0"/>
</linearGradient>
<linearGradient id="paint3_linear_6627_115159" x1="15.1981" y1="19.9389" x2="24.8397" y2="32.1482" gradientUnits="userSpaceOnUse">
<stop stop-color="#8898FF"/>
<stop offset="0.983895" stop-color="#6277F1"/>
</linearGradient>
</defs>
</svg>
