<svg width="40" height="40" viewBox="0 0 40 40" fill="none" xmlns="http://www.w3.org/2000/svg">
<circle cx="20" cy="20" r="20" fill="#F5F6F7"/>
<circle cx="20" cy="20" r="19.9678" stroke="#3197FF" stroke-opacity="0.2" stroke-width="0.0644528"/>
<g clip-path="url(#clip0_6627_115168)">
<path d="M31.2226 7.75537L21.1927 15.3566L23.0578 10.8769L31.2226 7.75537Z" fill="#E17726" stroke="#E17726" stroke-width="0.152588" stroke-linecap="round" stroke-linejoin="round"/>
<path d="M8.08769 7.75537L18.0283 15.4275L16.2525 10.8769L8.08769 7.75537Z" fill="#E27625" stroke="#E27625" stroke-width="0.152588" stroke-linecap="round" stroke-linejoin="round"/>
<path d="M27.6111 25.3794L24.9425 29.555L30.6568 31.1665L32.2938 25.4707L27.6111 25.3794Z" fill="#E27625" stroke="#E27625" stroke-width="0.152588" stroke-linecap="round" stroke-linejoin="round"/>
<path d="M7.02567 25.4707L8.65266 31.1665L14.3571 29.555L11.6983 25.3794L7.02567 25.4707Z" fill="#E27625" stroke="#E27625" stroke-width="0.152588" stroke-linecap="round" stroke-linejoin="round"/>
<path d="M14.0496 18.3254L12.4623 20.7781L18.1171 21.0416L17.9286 14.8086L14.0496 18.3254Z" fill="#E27625" stroke="#E27625" stroke-width="0.152588" stroke-linecap="round" stroke-linejoin="round"/>
<path d="M25.2601 18.326L21.3217 14.7383L21.1927 21.0422L26.8475 20.7787L25.2601 18.326Z" fill="#E27625" stroke="#E27625" stroke-width="0.152588" stroke-linecap="round" stroke-linejoin="round"/>
<path d="M14.3571 29.555L17.7798 27.8625L14.8334 25.5112L14.3571 29.555Z" fill="#E27625" stroke="#E27625" stroke-width="0.152588" stroke-linecap="round" stroke-linejoin="round"/>
<path d="M21.5299 27.8625L24.9426 29.555L24.4763 25.5112L21.5299 27.8625Z" fill="#E27625" stroke="#E27625" stroke-width="0.152588" stroke-linecap="round" stroke-linejoin="round"/>
<path d="M24.9426 29.5558L21.5299 27.8633L21.8076 30.1335L21.7779 31.0963L24.9426 29.5558Z" fill="#D5BFB2" stroke="#D5BFB2" stroke-width="0.152588" stroke-linecap="round" stroke-linejoin="round"/>
<path d="M14.3571 29.5558L17.5318 31.0963L17.512 30.1335L17.7798 27.8633L14.3571 29.5558Z" fill="#D5BFB2" stroke="#D5BFB2" stroke-width="0.152588" stroke-linecap="round" stroke-linejoin="round"/>
<path d="M17.5913 24.0112L14.754 23.1599L16.7579 22.2173L17.5913 24.0112Z" fill="#233447" stroke="#233447" stroke-width="0.152588" stroke-linecap="round" stroke-linejoin="round"/>
<path d="M21.7185 24.0112L22.5519 22.2173L24.5658 23.1599L21.7185 24.0112Z" fill="#233447" stroke="#233447" stroke-width="0.152588" stroke-linecap="round" stroke-linejoin="round"/>
<path d="M14.3574 29.555L14.8535 25.3794L11.6987 25.4707L14.3574 29.555Z" fill="#CC6228" stroke="#CC6228" stroke-width="0.152588" stroke-linecap="round" stroke-linejoin="round"/>
<path d="M24.4562 25.3794L24.9423 29.555L27.611 25.4707L24.4562 25.3794Z" fill="#CC6228" stroke="#CC6228" stroke-width="0.152588" stroke-linecap="round" stroke-linejoin="round"/>
<path d="M26.8475 20.7783L21.1927 21.0418L21.7185 24.0114L22.5518 22.2175L24.5657 23.1601L26.8475 20.7783Z" fill="#CC6228" stroke="#CC6228" stroke-width="0.152588" stroke-linecap="round" stroke-linejoin="round"/>
<path d="M14.754 23.1601L16.7579 22.2175L17.5913 24.0114L18.1171 21.0418L12.4623 20.7783L14.754 23.1601Z" fill="#CC6228" stroke="#CC6228" stroke-width="0.152588" stroke-linecap="round" stroke-linejoin="round"/>
<path d="M12.463 20.7783L14.8341 25.5114L14.7547 23.1601L12.463 20.7783Z" fill="#E27525" stroke="#E27525" stroke-width="0.152588" stroke-linecap="round" stroke-linejoin="round"/>
<path d="M24.5655 23.1601L24.4763 25.5114L26.8473 20.7783L24.5655 23.1601Z" fill="#E27525" stroke="#E27525" stroke-width="0.152588" stroke-linecap="round" stroke-linejoin="round"/>
<path d="M18.1175 21.042L17.5917 24.0116L18.2564 27.5182L18.4052 22.8967L18.1175 21.042Z" fill="#E27525" stroke="#E27525" stroke-width="0.152588" stroke-linecap="round" stroke-linejoin="round"/>
<path d="M21.1926 21.042L20.9148 22.8866L21.0537 27.5182L21.7184 24.0116L21.1926 21.042Z" fill="#E27525" stroke="#E27525" stroke-width="0.152588" stroke-linecap="round" stroke-linejoin="round"/>
<path d="M21.7187 24.0115L21.054 27.5182L21.5302 27.8628L24.4767 25.5115L24.566 23.1602L21.7187 24.0115Z" fill="#F5841F" stroke="#F5841F" stroke-width="0.152588" stroke-linecap="round" stroke-linejoin="round"/>
<path d="M14.754 23.1602L14.8334 25.5115L17.7798 27.8628L18.256 27.5182L17.5913 24.0115L14.754 23.1602Z" fill="#F5841F" stroke="#F5841F" stroke-width="0.152588" stroke-linecap="round" stroke-linejoin="round"/>
<path d="M21.7779 31.0957L21.8076 30.1329L21.5497 29.9099H17.76L17.512 30.1329L17.5318 31.0957L14.3571 29.5552L15.4683 30.4876L17.7203 32.0788H21.5794L23.8413 30.4876L24.9425 29.5552L21.7779 31.0957Z" fill="#C0AC9D" stroke="#C0AC9D" stroke-width="0.152588" stroke-linecap="round" stroke-linejoin="round"/>
<path d="M21.5303 27.8631L21.0541 27.5186H18.2565L17.7803 27.8631L17.5125 30.1334L17.7605 29.9104H21.5502L21.8082 30.1334L21.5303 27.8631Z" fill="#161616" stroke="#161616" stroke-width="0.152588" stroke-linecap="round" stroke-linejoin="round"/>
<path d="M31.649 15.8532L32.4923 11.6573L31.2224 7.75537L21.5299 15.1032L25.26 18.3261L30.528 19.8971L31.6887 18.5086L31.1828 18.1336L31.9863 17.3836L31.3713 16.8971L32.1749 16.2687L31.649 15.8532Z" fill="#763E1A" stroke="#763E1A" stroke-width="0.152588" stroke-linecap="round" stroke-linejoin="round"/>
<path d="M6.81744 11.6573L7.67063 15.8532L7.12499 16.2687L7.93849 16.8971L7.3234 17.3836L8.12698 18.1336L7.62102 18.5086L8.78175 19.8971L14.0497 18.3261L17.7798 15.1032L8.0873 7.75537L6.81744 11.6573Z" fill="#763E1A" stroke="#763E1A" stroke-width="0.152588" stroke-linecap="round" stroke-linejoin="round"/>
<path d="M30.5279 19.8966L25.26 18.3257L26.8473 20.7784L24.4763 25.5113L27.6112 25.4708H32.2938L30.5279 19.8966Z" fill="#F5841F" stroke="#F5841F" stroke-width="0.152588" stroke-linecap="round" stroke-linejoin="round"/>
<path d="M14.0495 18.3257L8.78163 19.8966L7.02567 25.4708H11.6983L14.8332 25.5113L12.4622 20.7784L14.0495 18.3257Z" fill="#F5841F" stroke="#F5841F" stroke-width="0.152588" stroke-linecap="round" stroke-linejoin="round"/>
<path d="M21.1926 21.0423L21.5299 15.1032L23.0576 10.877H16.252L17.7798 15.1032L18.1171 21.0423L18.2461 22.9071L18.256 27.5186H21.0537L21.0636 22.9071L21.1926 21.0423Z" fill="#F5841F" stroke="#F5841F" stroke-width="0.152588" stroke-linecap="round" stroke-linejoin="round"/>
</g>
<defs>
<clipPath id="clip0_6627_115168">
<rect width="27.3093" height="25.8343" fill="white" transform="translate(6 7)"/>
</clipPath>
</defs>
</svg>
